<?xml version="1.0" encoding="UTF-8" standalone="no"?>
<!DOCTYPE svg PUBLIC "-//W3C//DTD SVG 1.1//EN"
 "http://www.w3.org/Graphics/SVG/1.1/DTD/svg11.dtd">
<!-- Generated by graphviz version 2.43.0 (0)
 -->
<!-- Title: LiveGuard Pages: 1 -->
<svg width="949pt" height="518pt"
 viewBox="0.00 0.00 948.65 517.95" xmlns="http://www.w3.org/2000/svg" xmlns:xlink="http://www.w3.org/1999/xlink">
<g id="graph0" class="graph" transform="scale(1 1) rotate(0) translate(4 513.95)">
<title>LiveGuard</title>
<polygon fill="white" stroke="transparent" points="-4,4 -4,-513.95 944.65,-513.95 944.65,4 -4,4"/>
<g id="clust1" class="cluster">
<title>cluster_agent</title>
<path fill="#eafbf7" stroke="#16c7a6" d="M218,-401.95C218,-401.95 679,-401.95 679,-401.95 685,-401.95 691,-407.95 691,-413.95 691,-413.95 691,-489.95 691,-489.95 691,-495.95 685,-501.95 679,-501.95 679,-501.95 218,-501.95 218,-501.95 212,-501.95 206,-495.95 206,-489.95 206,-489.95 206,-413.95 206,-413.95 206,-407.95 212,-401.95 218,-401.95"/>
<text text-anchor="middle" x="448.5" y="-488.35" font-family="Helvetica,sans-Serif" font-weight="bold" font-size="12.00">Agent Browser Tab</text>
</g>
<g id="clust2" class="cluster">
<title>cluster_customer</title>
<path fill="#fef6e9" stroke="#f2a93b" d="M20,-253.25C20,-253.25 295,-253.25 295,-253.25 301,-253.25 307,-259.25 307,-265.25 307,-265.25 307,-341.25 307,-341.25 307,-347.25 301,-353.25 295,-353.25 295,-353.25 20,-353.25 20,-353.25 14,-353.25 8,-347.25 8,-341.25 8,-341.25 8,-265.25 8,-265.25 8,-259.25 14,-253.25 20,-253.25"/>
<text text-anchor="middle" x="157.5" y="-339.65" font-family="Helvetica,sans-Serif" font-weight="bold" font-size="12.00">Customer Browser Tab</text>
</g>
<g id="clust3" class="cluster">
<title>cluster_server</title>
<path fill="#edf2f7" stroke="#223652" d="M327,-161.25C327,-161.25 899,-161.25 899,-161.25 905,-161.25 911,-167.25 911,-173.25 911,-173.25 911,-341.25 911,-341.25 911,-347.25 905,-353.25 899,-353.25 899,-353.25 327,-353.25 327,-353.25 321,-353.25 315,-347.25 315,-341.25 315,-341.25 315,-173.25 315,-173.25 315,-167.25 321,-161.25 327,-161.25"/>
<text text-anchor="middle" x="613" y="-339.65" font-family="Helvetica,sans-Serif" font-weight="bold" font-size="12.00">LiveGuard Server (Node.js)</text>
</g>
<g id="clust4" class="cluster">
<title>cluster_db</title>
<path fill="#fbeff3" stroke="#6d2e46" d="M608,-8C608,-8 818,-8 818,-8 824,-8 830,-14 830,-20 830,-20 830,-128.25 830,-128.25 830,-134.25 824,-140.25 818,-140.25 818,-140.25 608,-140.25 608,-140.25 602,-140.25 596,-134.25 596,-128.25 596,-128.25 596,-20 596,-20 596,-14 602,-8 608,-8"/>
<text text-anchor="middle" x="713" y="-126.65" font-family="Helvetica,sans-Serif" font-weight="bold" font-size="12.00">PostgreSQL</text>
</g>
<!-- A1 -->
<g id="node1" class="node">
<title>A1</title>
<path fill="#f4f8fa" stroke="#223652" d="M337.5,-448.95C337.5,-448.95 226.5,-448.95 226.5,-448.95 220.5,-448.95 214.5,-442.95 214.5,-436.95 214.5,-436.95 214.5,-424.95 214.5,-424.95 214.5,-418.95 220.5,-412.95 226.5,-412.95 226.5,-412.95 337.5,-412.95 337.5,-412.95 343.5,-412.95 349.5,-418.95 349.5,-424.95 349.5,-424.95 349.5,-436.95 349.5,-436.95 349.5,-442.95 343.5,-448.95 337.5,-448.95"/>
<text text-anchor="middle" x="282" y="-428.15" font-family="Helvetica,sans-Serif" font-size="11.00">getUserMedia (mic)</text>
</g>
<!-- C1 -->
<g id="node4" class="node">
<title>C1</title>
<path fill="#f4f8fa" stroke="#223652" d="M286.5,-300.25C286.5,-300.25 175.5,-300.25 175.5,-300.25 169.5,-300.25 163.5,-294.25 163.5,-288.25 163.5,-288.25 163.5,-276.25 163.5,-276.25 163.5,-270.25 169.5,-264.25 175.5,-264.25 175.5,-264.25 286.5,-264.25 286.5,-264.25 292.5,-264.25 298.5,-270.25 298.5,-276.25 298.5,-276.25 298.5,-288.25 298.5,-288.25 298.5,-294.25 292.5,-300.25 286.5,-300.25"/>
<text text-anchor="middle" x="231" y="-279.45" font-family="Helvetica,sans-Serif" font-size="11.00">getUserMedia (mic)</text>
</g>
<!-- A1&#45;&gt;C1 -->
<g id="edge1" class="edge">
<title>A1&#45;&gt;C1</title>
<path fill="none" stroke="#16c7a6" d="M256.5,-402.72C256.5,-402.72 256.5,-310.63 256.5,-310.63"/>
<polygon fill="#16c7a6" stroke="#16c7a6" points="260,-310.63 256.5,-300.63 253,-310.63 260,-310.63"/>
<polygon fill="#16c7a6" stroke="#16c7a6" points="253,-402.72 256.5,-412.72 260,-402.72 253,-402.72"/>
<text text-anchor="middle" x="327.5" y="-369.05" font-family="Helvetica,sans-Serif" font-size="9.00" fill="#0e7a63">WebRTC audio (P2P)</text>
</g>
<!-- A2 -->
<g id="node2" class="node">
<title>A2</title>
<path fill="#f4f8fa" stroke="#223652" d="M484.5,-451.95C484.5,-451.95 393.5,-451.95 393.5,-451.95 387.5,-451.95 381.5,-445.95 381.5,-439.95 381.5,-439.95 381.5,-421.95 381.5,-421.95 381.5,-415.95 387.5,-409.95 393.5,-409.95 393.5,-409.95 484.5,-409.95 484.5,-409.95 490.5,-409.95 496.5,-415.95 496.5,-421.95 496.5,-421.95 496.5,-439.95 496.5,-439.95 496.5,-445.95 490.5,-451.95 484.5,-451.95"/>
<text text-anchor="middle" x="439" y="-434.15" font-family="Helvetica,sans-Serif" font-size="11.00">Web Speech API</text>
<text text-anchor="middle" x="439" y="-422.15" font-family="Helvetica,sans-Serif" font-size="11.00">(streaming STT)</text>
</g>
<!-- WS -->
<g id="node6" class="node">
<title>WS</title>
<path fill="#dce7f0" stroke="#223652" d="M583.5,-303.25C583.5,-303.25 376.5,-303.25 376.5,-303.25 370.5,-303.25 364.5,-297.25 364.5,-291.25 364.5,-291.25 364.5,-273.25 364.5,-273.25 364.5,-267.25 370.5,-261.25 376.5,-261.25 376.5,-261.25 583.5,-261.25 583.5,-261.25 589.5,-261.25 595.5,-267.25 595.5,-273.25 595.5,-273.25 595.5,-291.25 595.5,-291.25 595.5,-297.25 589.5,-303.25 583.5,-303.25"/>
<text text-anchor="middle" x="480" y="-285.45" font-family="Helvetica,sans-Serif" font-size="11.00">WebSocket Session Layer</text>
<text text-anchor="middle" x="480" y="-273.45" font-family="Helvetica,sans-Serif" font-size="11.00">signaling relay + transcript ingestion</text>
</g>
<!-- A2&#45;&gt;WS -->
<g id="edge2" class="edge">
<title>A2&#45;&gt;WS</title>
<path fill="none" stroke="#5a7189" d="M439,-409.64C439,-409.64 439,-313.52 439,-313.52"/>
<polygon fill="#5a7189" stroke="#5a7189" points="442.5,-313.52 439,-303.52 435.5,-313.52 442.5,-313.52"/>
<text text-anchor="middle" x="500.5" y="-374.05" font-family="Helvetica,sans-Serif" font-size="9.00" fill="#3a4c5e">final agent</text>
<text text-anchor="middle" x="500.5" y="-364.05" font-family="Helvetica,sans-Serif" font-size="9.00" fill="#3a4c5e">transcript chunks</text>
</g>
<!-- A3 -->
<g id="node3" class="node">
<title>A3</title>
<path fill="#d3f5ec" stroke="#223652" d="M671,-451.95C671,-451.95 541,-451.95 541,-451.95 535,-451.95 529,-445.95 529,-439.95 529,-439.95 529,-421.95 529,-421.95 529,-415.95 535,-409.95 541,-409.95 541,-409.95 671,-409.95 671,-409.95 677,-409.95 683,-415.95 683,-421.95 683,-421.95 683,-439.95 683,-439.95 683,-445.95 677,-451.95 671,-451.95"/>
<text text-anchor="middle" x="606" y="-434.15" font-family="Helvetica,sans-Serif" font-size="11.00">Compliance Sidebar UI</text>
<text text-anchor="middle" x="606" y="-422.15" font-family="Helvetica,sans-Serif" font-size="11.00">checklist + live nudges</text>
</g>
<!-- C2 -->
<g id="node5" class="node">
<title>C2</title>
<path fill="#f4f8fa" stroke="#223652" d="M119.5,-303.25C119.5,-303.25 28.5,-303.25 28.5,-303.25 22.5,-303.25 16.5,-297.25 16.5,-291.25 16.5,-291.25 16.5,-273.25 16.5,-273.25 16.5,-267.25 22.5,-261.25 28.5,-261.25 28.5,-261.25 119.5,-261.25 119.5,-261.25 125.5,-261.25 131.5,-267.25 131.5,-273.25 131.5,-273.25 131.5,-291.25 131.5,-291.25 131.5,-297.25 125.5,-303.25 119.5,-303.25"/>
<text text-anchor="middle" x="74" y="-285.45" font-family="Helvetica,sans-Serif" font-size="11.00">Web Speech API</text>
<text text-anchor="middle" x="74" y="-273.45" font-family="Helvetica,sans-Serif" font-size="11.00">(streaming STT)</text>
</g>
<!-- C2&#45;&gt;WS -->
<g id="edge3" class="edge">
<title>C2&#45;&gt;WS</title>
<path fill="none" stroke="#5a7189" d="M74,-303.56C74,-324.07 74,-352 74,-352 74,-352 373,-352 373,-352 373,-352 373,-313.56 373,-313.56"/>
<polygon fill="#5a7189" stroke="#5a7189" points="376.5,-313.56 373,-303.56 369.5,-313.56 376.5,-313.56"/>
<text text-anchor="middle" x="204" y="-374.05" font-family="Helvetica,sans-Serif" font-size="9.00" fill="#3a4c5e">final customer</text>
<text text-anchor="middle" x="204" y="-364.05" font-family="Helvetica,sans-Serif" font-size="9.00" fill="#3a4c5e">transcript chunks</text>
</g>
<!-- WS&#45;&gt;A3 -->
<g id="edge8" class="edge">
<title>WS&#45;&gt;A3</title>
<path fill="none" stroke="#16c7a6" d="M562.25,-303.55C562.25,-303.55 562.25,-399.68 562.25,-399.68"/>
<polygon fill="#16c7a6" stroke="#16c7a6" points="558.75,-399.68 562.25,-409.68 565.75,-399.68 558.75,-399.68"/>
<text text-anchor="middle" x="641.5" y="-369.05" font-family="Helvetica,sans-Serif" font-size="9.00" fill="#0e7a63">push over WebSocket</text>
</g>
<!-- RE -->
<g id="node7" class="node">
<title>RE</title>
<path fill="#f4f8fa" stroke="#223652" d="M489,-211.25C489,-211.25 335,-211.25 335,-211.25 329,-211.25 323,-205.25 323,-199.25 323,-199.25 323,-181.25 323,-181.25 323,-175.25 329,-169.25 335,-169.25 335,-169.25 489,-169.25 489,-169.25 495,-169.25 501,-175.25 501,-181.25 501,-181.25 501,-199.25 501,-199.25 501,-205.25 495,-211.25 489,-211.25"/>
<text text-anchor="middle" x="412" y="-193.45" font-family="Helvetica,sans-Serif" font-size="11.00">Deterministic Rule Engine</text>
<text text-anchor="middle" x="412" y="-181.45" font-family="Helvetica,sans-Serif" font-size="11.00">5 disclosure / conduct rules</text>
</g>
<!-- WS&#45;&gt;RE -->
<g id="edge4" class="edge">
<title>WS&#45;&gt;RE</title>
<path fill="none" stroke="#5a7189" d="M410,-260.91C410,-260.91 410,-221.47 410,-221.47"/>
<polygon fill="#5a7189" stroke="#5a7189" points="413.5,-221.47 410,-211.47 406.5,-221.47 413.5,-221.47"/>
<text text-anchor="middle" x="504" y="-234.05" font-family="Helvetica,sans-Serif" font-size="9.00" fill="#3a4c5e">agent text</text>
</g>
<!-- LLM -->
<g id="node8" class="node">
<title>LLM</title>
<path fill="#f4f8fa" stroke="#223652" d="M720.5,-211.25C720.5,-211.25 545.5,-211.25 545.5,-211.25 539.5,-211.25 533.5,-205.25 533.5,-199.25 533.5,-199.25 533.5,-181.25 533.5,-181.25 533.5,-175.25 539.5,-169.25 545.5,-169.25 545.5,-169.25 720.5,-169.25 720.5,-169.25 726.5,-169.25 732.5,-175.25 732.5,-181.25 732.5,-181.25 732.5,-199.25 732.5,-199.25 732.5,-205.25 726.5,-211.25 720.5,-211.25"/>
<text text-anchor="middle" x="633" y="-193.45" font-family="Helvetica,sans-Serif" font-size="11.00">LLM Soft&#45;Signal Detector</text>
<text text-anchor="middle" x="633" y="-181.45" font-family="Helvetica,sans-Serif" font-size="11.00">sentiment / mis&#45;selling phrases</text>
</g>
<!-- WS&#45;&gt;LLM -->
<g id="edge5" class="edge">
<title>WS&#45;&gt;LLM</title>
<path fill="none" stroke="#5a7189" d="M554.17,-260.91C554.17,-260.91 554.17,-221.47 554.17,-221.47"/>
<polygon fill="#5a7189" stroke="#5a7189" points="557.67,-221.47 554.17,-211.47 550.67,-221.47 557.67,-221.47"/>
<text text-anchor="middle" x="597" y="-234.05" font-family="Helvetica,sans-Serif" font-size="9.00" fill="#3a4c5e">customer text</text>
</g>
<!-- SUM -->
<g id="node9" class="node">
<title>SUM</title>
<path fill="#f4f8fa" stroke="#223652" d="M891,-211.25C891,-211.25 777,-211.25 777,-211.25 771,-211.25 765,-205.25 765,-199.25 765,-199.25 765,-181.25 765,-181.25 765,-175.25 771,-169.25 777,-169.25 777,-169.25 891,-169.25 891,-169.25 897,-169.25 903,-175.25 903,-181.25 903,-181.25 903,-199.25 903,-199.25 903,-205.25 897,-211.25 891,-211.25"/>
<text text-anchor="middle" x="834" y="-193.45" font-family="Helvetica,sans-Serif" font-size="11.00">Risk Scoring +</text>
<text text-anchor="middle" x="834" y="-181.45" font-family="Helvetica,sans-Serif" font-size="11.00">Summary Generator</text>
</g>
<!-- WS&#45;&gt;SUM -->
<g id="edge11" class="edge">
<title>WS&#45;&gt;SUM</title>
<path fill="none" stroke="#5a7189" d="M595.87,-289C670.7,-289 754.17,-289 754.17,-289 754.17,-289 754.17,-190 754.17,-190 754.17,-190 755.24,-190 755.24,-190"/>
<polygon fill="#5a7189" stroke="#5a7189" points="754.93,-193.5 764.93,-190 754.93,-186.5 754.93,-193.5"/>
<text text-anchor="middle" x="837" y="-234.05" font-family="Helvetica,sans-Serif" font-size="9.00" fill="#3a4c5e">on call end</text>
</g>
<!-- RE&#45;&gt;WS -->
<g id="edge6" class="edge">
<title>RE&#45;&gt;WS</title>
<path fill="none" stroke="#16c7a6" d="M455.5,-211.59C455.5,-211.59 455.5,-251.03 455.5,-251.03"/>
<polygon fill="#16c7a6" stroke="#16c7a6" points="452,-251.03 455.5,-261.03 459,-251.03 452,-251.03"/>
<text text-anchor="middle" x="399" y="-234.05" font-family="Helvetica,sans-Serif" font-size="9.00" fill="#0e7a63">checklist + nudges</text>
</g>
<!-- DB -->
<g id="node11" class="node">
<title>DB</title>
<path fill="#f3d9e3" stroke="#223652" d="M821.5,-83.6C821.5,-87.34 772.87,-90.38 713,-90.38 653.13,-90.38 604.5,-87.34 604.5,-83.6 604.5,-83.6 604.5,-22.65 604.5,-22.65 604.5,-18.91 653.13,-15.87 713,-15.87 772.87,-15.87 821.5,-18.91 821.5,-22.65 821.5,-22.65 821.5,-83.6 821.5,-83.6"/>
<path fill="none" stroke="#223652" d="M821.5,-83.6C821.5,-79.87 772.87,-76.83 713,-76.83 653.13,-76.83 604.5,-79.87 604.5,-83.6"/>
<text text-anchor="middle" x="713" y="-62.33" font-family="Helvetica,sans-Serif" font-size="11.00">calls · transcript_events</text>
<text text-anchor="middle" x="713" y="-50.33" font-family="Helvetica,sans-Serif" font-size="11.00">compliance_events · nudges</text>
<text text-anchor="middle" x="713" y="-38.33" font-family="Helvetica,sans-Serif" font-size="11.00">call_summaries · compliance_rules</text>
</g>
<!-- RE&#45;&gt;DB -->
<g id="edge9" class="edge">
<title>RE&#45;&gt;DB</title>
<path fill="none" stroke="#5a7189" d="M412,-169.11C412,-130.61 412,-53 412,-53 412,-53 594.33,-53 594.33,-53"/>
<polygon fill="#5a7189" stroke="#5a7189" points="594.33,-56.5 604.33,-53 594.33,-49.5 594.33,-56.5"/>
</g>
<!-- LLM&#45;&gt;WS -->
<g id="edge7" class="edge">
<title>LLM&#45;&gt;WS</title>
<path fill="none" stroke="#e5484d" d="M574.83,-211.59C574.83,-211.59 574.83,-251.03 574.83,-251.03"/>
<polygon fill="#e5484d" stroke="#e5484d" points="571.33,-251.03 574.83,-261.03 578.33,-251.03 571.33,-251.03"/>
<text text-anchor="middle" x="709.5" y="-234.05" font-family="Helvetica,sans-Serif" font-size="9.00" fill="#b23237">risk&#45;phrase nudges</text>
</g>
<!-- LLM&#45;&gt;DB -->
<g id="edge10" class="edge">
<title>LLM&#45;&gt;DB</title>
<path fill="none" stroke="#5a7189" d="M668.5,-169.12C668.5,-169.12 668.5,-100.31 668.5,-100.31"/>
<polygon fill="#5a7189" stroke="#5a7189" points="672,-100.31 668.5,-90.31 665,-100.31 672,-100.31"/>
</g>
<!-- SUM&#45;&gt;DB -->
<g id="edge12" class="edge">
<title>SUM&#45;&gt;DB</title>
<path fill="none" stroke="#5a7189" d="M793.25,-169.12C793.25,-169.12 793.25,-99.22 793.25,-99.22"/>
<polygon fill="#5a7189" stroke="#5a7189" points="796.75,-99.22 793.25,-89.22 789.75,-99.22 796.75,-99.22"/>
</g>
<!-- API -->
<g id="node10" class="node">
<title>API</title>
<path fill="#f4f8fa" stroke="#223652" d="M891,-303.25C891,-303.25 781,-303.25 781,-303.25 775,-303.25 769,-297.25 769,-291.25 769,-291.25 769,-273.25 769,-273.25 769,-267.25 775,-261.25 781,-261.25 781,-261.25 891,-261.25 891,-261.25 897,-261.25 903,-267.25 903,-273.25 903,-273.25 903,-291.25 903,-291.25 903,-297.25 897,-303.25 891,-303.25"/>
<text text-anchor="middle" x="836" y="-285.45" font-family="Helvetica,sans-Serif" font-size="11.00">REST API</text>
<text text-anchor="middle" x="836" y="-273.45" font-family="Helvetica,sans-Serif" font-size="11.00">/api/calls &#160;/api/rules</text>
</g>
<!-- API&#45;&gt;DB -->
<g id="edge13" class="edge">
<title>API&#45;&gt;DB</title>
<path fill="none" stroke="#5a7189" d="M758.65,-275C758.65,-275 743.33,-275 743.33,-275 743.33,-275 743.33,-100.26 743.33,-100.26"/>
<polygon fill="#5a7189" stroke="#5a7189" points="758.65,-278.5 768.65,-275 758.65,-271.5 758.65,-278.5"/>
<polygon fill="#5a7189" stroke="#5a7189" points="746.83,-100.26 743.33,-90.26 739.83,-100.26 746.83,-100.26"/>
</g>
<!-- SUP -->
<g id="node12" class="node">
<title>SUP</title>
<ellipse fill="#f4f8fa" stroke="#223652" cx="836" cy="-430.95" rx="104.8" ry="29.9"/>
<text text-anchor="middle" x="836" y="-434.15" font-family="Helvetica,sans-Serif" font-size="11.00">Supervisor Dashboard</text>
<text text-anchor="middle" x="836" y="-422.15" font-family="Helvetica,sans-Serif" font-size="11.00">(post&#45;call review)</text>
</g>
<!-- SUP&#45;&gt;API -->
<g id="edge14" class="edge">
<title>SUP&#45;&gt;API</title>
<path fill="none" stroke="#5a7189" d="M836,-391.21C836,-391.21 836,-313.3 836,-313.3"/>
<polygon fill="#5a7189" stroke="#5a7189" points="839.5,-313.3 836,-303.3 832.5,-313.3 839.5,-313.3"/>
<polygon fill="#5a7189" stroke="#5a7189" points="832.5,-391.21 836,-401.21 839.5,-391.21 832.5,-391.21"/>
<text text-anchor="middle" x="873.5" y="-369.05" font-family="Helvetica,sans-Serif" font-size="9.00" fill="#3a4c5e">GET /api/calls/:id</text>
</g>
</g>
</svg>
